<?xml version="1.0" encoding="UTF-8"?>
<svg id="_圖層_1" data-name="圖層 1" xmlns="http://www.w3.org/2000/svg" viewBox="0 0 503.5 165.5">
  <defs>
    <style>
      .cls-1 {
        fill: #fff;
      }

      .cls-2 {
        stroke: #231815;
        stroke-miterlimit: 10;
        stroke-width: 4px;
      }

      .cls-2, .cls-3 {
        fill: #036eb8;
      }

      .cls-4 {
        fill: #00a0e9;
      }

      .cls-5 {
        fill: #1d2088;
      }

      .cls-6 {
        fill: #231815;
      }
    </style>
  </defs>
  <g>
    <rect class="cls-1" x="12.25" y="12.25" width="479" height="141" rx="22.88" ry="22.88"/>
    <path class="cls-6" d="m503.25,35.13v95.24c0,19.23-15.65,34.88-34.88,34.88H35.13C15.9,165.25.25,149.6.25,130.37V35.13C.25,15.9,15.9.25,35.13.25h433.24c19.23,0,34.88,15.65,34.88,34.88Zm-12,95.24V35.13c0-12.62-10.26-22.88-22.88-22.88H35.13c-12.62,0-22.88,10.26-22.88,22.88v95.24c0,12.62,10.26,22.88,22.88,22.88h433.24c12.62,0,22.88-10.26,22.88-22.88Z"/>
  </g>
  <path class="cls-4" d="m449.15,32.34c-2.06,1.91-3.52,3.29-5,4.65-19.15,17.56-38.32,35.1-57.45,52.69-8.87,8.15-19.94,8.48-26,.36-13.99-18.74-27.82-37.61-41.71-56.43-.18-.24-.27-.54-.62-1.24,1.7-.26,3.15-.65,4.53-.66,30.57-.05,61.14-.05,91.71-.06,9.68,0,19.36-.04,29.02.02,1.65,0,3.23.39,5.51.68Z"/>
  <path class="cls-5" d="m353.57,92.08c4.03,6.45,9.53,10.49,17.8,10.43,8.22-.05,15.18-4.04,21.37-10.37,12.73,13.84,25.28,27.49,38.29,41.64-1.95.27-3.29.62-4.57.62-25.53.03-51.04.03-76.57.03-14.47,0-28.95.04-43.42.01-1.77,0-3.49-.3-6.04-.54,18.03-14.2,35.43-27.9,53.12-41.83Z"/>
  <path class="cls-3" d="m296.55,129.43c.18-2.64.14-4.48.46-6.33,4.49-25.67,9.02-51.34,13.57-77.01.49-2.77,1.17-5.53,1.75-8.3.28-.06.56-.12.84-.19,12.23,16.55,24.47,33.1,36.79,49.78-17.65,13.9-35.14,27.66-53.42,42.05Z"/>
  <path d="m457.35,31.34c-2.46-4.51-6.94-6.14-12.36-6.14-16.25,0-32.5-.03-48.76-.03-23.01,0-46.03.04-69.05.07-11.49.01-15.99,2.83-21.75,13.6-5.23,29.64-10.45,59.28-15.68,88.92.82,4.99,2.43,9.52,7.3,11.5,2.41.97,5.17,1.6,7.92,1.61,39.94.08,79.9.03,119.86-.01,8.58,0,10.09-.6,13.75-9,.11-.24-2.28-2.34-2.12-2.57,0-.02,0-.04,0-.05-13.09-14.23-25.72-27.96-38.5-41.85,18.14-16.65,36.14-33.16,54.13-49.68.03,0,.06,0,.09.01,2.99-2.52,6.28-4.31,5.15-6.38Zm-160.79,98.08c.18-2.64.14-4.48.46-6.33,4.49-25.67,9.02-51.34,13.57-77.01.49-2.77,1.17-5.53,1.75-8.3.28-.06.56-.12.84-.19,12.23,16.55,24.47,33.1,36.79,49.78-17.65,13.9-35.14,27.66-53.42,42.05Zm134.48,4.35c-1.95.27-3.29.62-4.57.62-25.53.03-51.04.03-76.57.03-14.47,0-28.95.04-43.42.01-1.77,0-3.49-.3-6.04-.54,18.03-14.2,35.43-27.9,53.12-41.83,4.03,6.45,9.53,10.49,17.8,10.43,8.22-.05,15.18-4.04,21.37-10.37,12.73,13.84,25.28,27.49,38.29,41.64Zm13.12-96.79c-19.15,17.56-38.32,35.1-57.45,52.69-8.87,8.15-19.94,8.48-26,.36-13.99-18.74-27.82-37.61-41.71-56.43-.18-.24-.27-.54-.62-1.24,1.7-.26,3.15-.65,4.53-.66,30.57-.05,61.14-.05,91.71-.06,9.68,0,19.36-.04,29.02.02,1.65,0,3.23.39,5.51.68-2.06,1.91-3.52,3.29-5,4.65Z"/>
  <g>
    <path class="cls-6" d="m47.36,141.97l1.02-5.8c3.89-.1,7.07-.38,9.54-.84,2.47-.46,4.48-1.32,6.03-2.6,1.55-1.27,2.74-3,3.59-5.19.84-2.19,1.59-5.12,2.24-8.78l12.55-71.19c.63-3.56.96-6.44.99-8.63.03-2.19-.38-3.92-1.22-5.19-.84-1.27-2.25-2.14-4.2-2.6-1.96-.46-4.55-.79-7.77-.99l1.02-5.81h53.62c9.17,0,17.38,1.53,24.63,4.58,7.25,3.06,13.23,7.28,17.93,12.68,4.7,5.4,7.97,11.81,9.82,19.25,1.85,7.43,2,15.53.45,24.29-1.47,8.35-4.3,16.02-8.48,22.99-4.19,6.98-9.39,12.96-15.61,17.95-6.23,4.99-13.31,8.89-21.23,11.69-7.93,2.8-16.32,4.2-25.18,4.2h-59.73ZM103.74,31.83c-1.73,0-2.75.87-3.05,2.6l-14.57,82.64c-2.05,11.61,4.52,17.41,19.69,17.41,13.95,0,25.38-4.15,34.27-12.45,8.9-8.3,14.76-20.49,17.6-36.59,1.49-8.45,1.8-15.99.93-22.61-.87-6.62-2.81-12.22-5.82-16.8-3.01-4.58-7-8.1-11.97-10.54-4.97-2.44-10.86-3.67-17.69-3.67h-19.4Z"/>
    <path class="cls-6" d="m214.79,117.69c-.74,4.18-1.22,7.49-1.45,9.93-.23,2.44-.02,4.3.62,5.58.64,1.27,1.74,2.12,3.3,2.52,1.56.41,3.79.71,6.71.92l-.94,5.35h-40.63l.94-5.35c2.97-.1,5.36-.38,7.18-.84,1.81-.46,3.28-1.3,4.42-2.52,1.13-1.22,2.03-2.98,2.69-5.27.66-2.29,1.33-5.37,2.01-9.24l3.15-17.87c1.22-6.92,2.1-12.32,2.62-16.19.53-3.87.52-6.72-.02-8.55-.54-1.83-1.7-2.93-3.47-3.28-1.77-.36-4.29-.53-7.54-.53l.94-5.35,27.76-5.8-1.2,18.94h.61c1.86-3.05,4.01-5.85,6.45-8.4,2.44-2.54,4.98-4.71,7.64-6.49,2.66-1.78,5.35-3.18,8.07-4.2,2.72-1.02,5.41-1.53,8.06-1.53,3.26,0,5.69.79,7.3,2.37,1.61,1.58,2.17,3.69,1.71,6.34-.43,2.44-1.53,4.35-3.3,5.73-1.77,1.38-4.08,2.06-6.93,2.06-1.63,0-2.97-.2-4.02-.61-1.05-.41-1.97-.84-2.75-1.3-.79-.46-1.52-.89-2.21-1.3-.69-.41-1.5-.61-2.41-.61-2.75,0-5.81,1.76-9.18,5.27-3.37,3.51-6.29,7.97-8.77,13.37-1.34,2.95-2.56,6.29-3.67,10-1.12,3.72-2.03,7.61-2.75,11.69l-.92,5.19Z"/>
  </g>
  <circle class="cls-2" cx="262.32" cy="133.78" r="8"/>
</svg>